<?xml version="1.0" encoding="UTF-8" standalone="no"?>
<!-- Generator: Adobe Illustrator 19.1.0, SVG Export Plug-In . SVG Version: 6.00 Build 0)  -->

<svg
   version="1.1"
   id="Capa_1"
   x="0px"
   y="0px"
   viewBox="0 0 67 67"
   style="enable-background:new 0 0 67 67;"
   xml:space="preserve"
   sodipodi:docname="clipboard.svg"
   inkscape:version="1.4.4 (dcaf3e7d9e, 2026-05-05)"
   xmlns:inkscape="http://www.inkscape.org/namespaces/inkscape"
   xmlns:sodipodi="http://sodipodi.sourceforge.net/DTD/sodipodi-0.dtd"
   xmlns="http://www.w3.org/2000/svg"
   xmlns:svg="http://www.w3.org/2000/svg"><defs
   id="defs17" /><sodipodi:namedview
   id="namedview17"
   pagecolor="#ffffff"
   bordercolor="#000000"
   borderopacity="0.25"
   inkscape:showpageshadow="2"
   inkscape:pageopacity="0.0"
   inkscape:pagecheckerboard="0"
   inkscape:deskcolor="#d1d1d1"
   inkscape:zoom="13.104478"
   inkscape:cx="33.5"
   inkscape:cy="33.5"
   inkscape:window-width="1920"
   inkscape:window-height="1131"
   inkscape:window-x="0"
   inkscape:window-y="0"
   inkscape:window-maximized="1"
   inkscape:current-layer="Capa_1" />
<g
   id="g2"
   style="fill:#999999">
	<g
   id="g1"
   style="fill:#999999">
		<path
   d="M61.559,16.528L44.432,0.713C44.064,0.377,43.583,0,43.083,0H25.446c-5.407,0-9.134,2.81-9.134,6.877V12h-3.358    c-4.946,0-8.642,3.124-8.642,7.369V59.37c0,4.492,4.077,7.63,8.642,7.63h29.231c4.677,0,8.127-3.288,8.127-7.63V55h4.365    c4.41,0,7.635-3.513,7.635-8.122V18.555c0-0.029,0.242-0.057,0.241-0.085c0.001-0.03,0.134-0.059,0.134-0.089    C62.688,17.541,62.293,16.824,61.559,16.528z M44.312,6.665L55.462,16H44.312V6.665z M46.312,59.37c0,2.363-1.938,3.63-4.127,3.63    H12.955c-2.323,0-4.642-1.381-4.642-3.63V19.369c0-2.6,3.095-3.369,4.642-3.369h15.358v15.381c0,1.104,1.396,1.619,2.5,1.619h15.5    V59.37z M44.028,29H32.312v-9.878L44.028,29z M54.677,51h-4.365V31.047c0-0.562,0.014-1.097-0.4-1.476l-17.43-16.059    c-0.324-0.667-0.94-1.132-1.732-1.132c-0.036,0-0.039-0.182-0.075-0.18c-0.038-0.002-0.044-0.201-0.083-0.201h-10.28V6.876    c0-2.063,3.02-2.877,5.134-2.877h14.866V18.38c0,1.104,1.396,1.619,2.5,1.619h15.5v26.878C58.312,49.276,56.881,51,54.677,51z"
   id="path1"
   style="fill:#999999" />
	</g>
</g>
<g
   id="g3"
   style="fill:#999999">
</g>
<g
   id="g4"
   style="fill:#999999">
</g>
<g
   id="g5"
   style="fill:#999999">
</g>
<g
   id="g6"
   style="fill:#999999">
</g>
<g
   id="g7"
   style="fill:#999999">
</g>
<g
   id="g8"
   style="fill:#999999">
</g>
<g
   id="g9"
   style="fill:#999999">
</g>
<g
   id="g10"
   style="fill:#999999">
</g>
<g
   id="g11"
   style="fill:#999999">
</g>
<g
   id="g12"
   style="fill:#999999">
</g>
<g
   id="g13"
   style="fill:#999999">
</g>
<g
   id="g14"
   style="fill:#999999">
</g>
<g
   id="g15"
   style="fill:#999999">
</g>
<g
   id="g16"
   style="fill:#999999">
</g>
<g
   id="g17"
   style="fill:#999999">
</g>
</svg>
